<mxfile host="app.diagrams.net" modified="2024-03-05T02:18:11.393Z" agent="Mozilla/5.0 (X11; Linux x86_64) AppleWebKit/537.36 (KHTML, like Gecko) Chrome/122.0.0.0 Safari/537.36" version="24.0.0" etag="8xrOgJQnUg5lnUkgC4R2" type="github">
  <diagram name="Page-1" id="Q6DCgMfbbjko9ryPCdgc">
    <mxGraphModel>
      <root>
        <mxCell id="0" />
        <mxCell id="1" parent="0" />
      </root>
    </mxGraphModel>
  </diagram>
</mxfile>
